<svg width="157" height="318" viewBox="0 0 157 318" fill="none" xmlns="http://www.w3.org/2000/svg">
<g id="asset 44 2">
<path id="Vector" d="M-11.6186 277.335C-11.3287 281.767 -7.32195 284.906 -2.66921 284.345C1.98353 283.785 5.52031 279.738 5.23041 275.306C4.94051 270.874 0.933717 267.735 -3.71902 268.296C-8.37175 268.856 -11.9085 272.903 -11.6186 277.335Z" fill="#055D6B" fill-opacity="0.2"/>
<path id="Vector_2" d="M18.9005 256.545C15.2003 258.518 13.6822 262.896 15.5096 266.324C17.3371 269.751 21.8181 270.93 25.5183 268.957C29.2185 266.985 30.7366 262.607 28.9092 259.179C27.0817 255.752 22.6007 254.573 18.9005 256.545Z" fill="#055D6B" fill-opacity="0.2"/>
<path id="Vector_3" d="M44.8252 243.904C47.927 242.25 51.8192 243.275 53.3511 246.148C54.883 249.021 53.5643 252.823 50.4626 254.477C47.3608 256.131 43.4686 255.107 41.9367 252.234C40.4048 249.36 41.7234 245.558 44.8252 243.904Z" fill="#055D6B" fill-opacity="0.2"/>
<path id="Vector_4" d="M70.75 231.262C73.3555 229.873 76.5064 230.702 77.7932 233.116C79.08 235.529 78.0124 238.607 75.407 239.997C72.8015 241.386 69.6506 240.557 68.3638 238.143C67.077 235.73 68.1445 232.651 70.75 231.262Z" fill="#055D6B" fill-opacity="0.2"/>
<path id="Vector_5" d="M96.7374 218.439C98.8465 217.315 101.441 217.998 102.483 219.951C103.525 221.905 102.646 224.44 100.536 225.565C98.4273 226.689 95.8324 226.007 94.7907 224.053C93.749 222.099 94.6282 219.564 96.7374 218.439Z" fill="#055D6B" fill-opacity="0.2"/>
<path id="Vector_6" d="M122.662 205.798C124.275 204.938 126.128 205.426 126.925 206.92C127.721 208.414 127.093 210.225 125.481 211.085C123.868 211.945 122.014 211.457 121.218 209.963C120.421 208.469 121.049 206.658 122.662 205.798Z" fill="#055D6B" fill-opacity="0.2"/>
<path id="Vector_7" d="M148.525 193.041C147.429 193.626 146.979 194.923 147.521 195.938C148.062 196.954 149.39 197.303 150.486 196.719C151.582 196.134 152.032 194.837 151.491 193.822C150.949 192.806 149.622 192.457 148.525 193.041Z" fill="#055D6B" fill-opacity="0.2"/>
<path id="Vector_8" d="M4.80761 230.113C1.10742 232.086 -0.410735 236.463 1.41672 239.891C3.24417 243.318 7.72521 244.498 11.4254 242.525C15.1256 240.552 16.6437 236.174 14.8163 232.747C12.9888 229.319 8.50779 228.14 4.80761 230.113Z" fill="#055D6B" fill-opacity="0.2"/>
<path id="Vector_9" d="M30.7318 217.471C33.8335 215.817 37.7258 216.841 39.2577 219.714C40.7896 222.588 39.4709 226.39 36.3691 228.044C33.2674 229.698 29.3751 228.673 27.8432 225.8C26.3113 222.927 27.63 219.125 30.7318 217.471Z" fill="#055D6B" fill-opacity="0.2"/>
<path id="Vector_10" d="M56.6563 204.829C54.0524 206.217 52.9841 209.298 54.2701 211.71C55.5561 214.122 58.7094 214.952 61.3132 213.564C63.9171 212.175 64.9854 209.095 63.6994 206.683C62.4134 204.271 59.2601 203.441 56.6563 204.829Z" fill="#055D6B" fill-opacity="0.2"/>
<path id="Vector_11" d="M82.7053 192.122C84.8145 190.997 87.4093 191.68 88.451 193.634C89.4927 195.587 88.6136 198.122 86.5044 199.247C84.3952 200.372 81.8004 199.689 80.7587 197.735C79.6557 195.666 80.5961 193.246 82.7053 192.122Z" fill="#055D6B" fill-opacity="0.2"/>
<path id="Vector_12" d="M108.568 179.365C110.181 178.505 112.035 178.993 112.831 180.487C113.628 181.981 113 183.792 111.387 184.652C109.774 185.512 107.92 185.024 107.124 183.53C106.327 182.036 106.955 180.225 108.568 179.365Z" fill="#055D6B" fill-opacity="0.2"/>
<path id="Vector_13" d="M134.431 166.609C133.335 167.193 132.885 168.49 133.427 169.506C133.968 170.521 135.296 170.871 136.392 170.286C137.489 169.702 137.938 168.405 137.397 167.389C136.855 166.373 135.528 166.024 134.431 166.609Z" fill="#055D6B" fill-opacity="0.2"/>
<path id="Vector_14" d="M-9.22511 203.795C-12.9253 205.768 -14.4435 210.145 -12.616 213.573C-10.7885 217 -6.3075 218.18 -2.60732 216.207C1.09287 214.234 2.61102 209.856 0.783572 206.429C-1.04388 203.001 -5.52492 201.822 -9.22511 203.795Z" fill="#055D6B" fill-opacity="0.2"/>
<path id="Vector_15" d="M16.6997 191.153C19.8014 189.499 23.6937 190.523 25.2256 193.396C26.7575 196.27 25.4388 200.072 22.337 201.726C19.2353 203.38 15.343 202.356 13.8111 199.482C12.2179 196.494 13.5979 192.807 16.6997 191.153Z" fill="#055D6B" fill-opacity="0.2"/>
<path id="Vector_16" d="M42.6243 178.511C45.2298 177.122 48.3807 177.951 49.6675 180.365C50.9543 182.778 49.8868 185.857 47.2813 187.246C44.6758 188.635 41.525 187.806 40.2382 185.392C38.9514 182.979 40.0189 179.9 42.6243 178.511Z" fill="#055D6B" fill-opacity="0.2"/>
<path id="Vector_17" d="M68.6116 165.688C70.7208 164.564 73.3156 165.247 74.3573 167.2C75.399 169.154 74.5199 171.689 72.4107 172.814C70.3015 173.938 67.7066 173.256 66.6649 171.302C65.6232 169.348 66.5024 166.813 68.6116 165.688Z" fill="#055D6B" fill-opacity="0.2"/>
<path id="Vector_18" d="M94.5363 153.047C96.1492 152.187 98.0026 152.675 98.7992 154.169C99.5958 155.663 98.9679 157.474 97.3549 158.333C95.742 159.193 93.8886 158.706 93.092 157.212C92.2954 155.718 92.9233 153.907 94.5363 153.047Z" fill="#055D6B" fill-opacity="0.2"/>
<path id="Vector_19" d="M120.4 140.29C119.303 140.875 118.853 142.172 119.395 143.187C119.936 144.203 121.264 144.552 122.36 143.968C123.457 143.383 123.907 142.086 123.365 141.071C122.824 140.055 121.496 139.706 120.4 140.29Z" fill="#055D6B" fill-opacity="0.2"/>
<path id="Vector_20" d="M2.60621 164.72C5.70796 163.066 9.60022 164.09 11.1321 166.963C12.664 169.837 11.3453 173.639 8.24358 175.293C5.14183 176.947 1.24957 175.922 -0.282324 173.049C-1.81422 170.176 -0.495542 166.374 2.60621 164.72Z" fill="#055D6B" fill-opacity="0.2"/>
<path id="Vector_21" d="M28.5309 152.078C31.1364 150.689 34.2872 151.518 35.574 153.932C36.8608 156.345 35.7933 159.423 33.1879 160.813C30.5824 162.202 27.4315 161.373 26.1447 158.959C24.8579 156.546 25.9254 153.467 28.5309 152.078Z" fill="#055D6B" fill-opacity="0.2"/>
<path id="Vector_22" d="M54.5794 139.371C56.6886 138.246 59.2834 138.929 60.3251 140.883C61.3668 142.837 60.4877 145.372 58.3785 146.496C56.2693 147.621 53.6745 146.938 52.6328 144.984C51.5298 142.916 52.4702 140.495 54.5794 139.371Z" fill="#055D6B" fill-opacity="0.2"/>
<path id="Vector_23" d="M80.4429 126.615C82.0558 125.755 83.9092 126.242 84.7058 127.736C85.5024 129.23 84.8745 131.041 83.2616 131.901C81.6487 132.761 79.7952 132.273 78.9986 130.779C78.202 129.285 78.83 127.474 80.4429 126.615Z" fill="#055D6B" fill-opacity="0.2"/>
<path id="Vector_24" d="M106.306 113.857C105.21 114.442 104.76 115.739 105.301 116.754C105.843 117.77 107.171 118.119 108.267 117.535C109.363 116.95 109.813 115.653 109.272 114.638C108.73 113.622 107.402 113.273 106.306 113.857Z" fill="#055D6B" fill-opacity="0.2"/>
<path id="Vector_25" d="M14.4378 125.645C17.0432 124.256 20.1941 125.085 21.4809 127.498C22.7677 129.912 21.7002 132.99 19.0947 134.379C16.4893 135.768 13.3384 134.939 12.0516 132.526C10.7648 130.112 11.8323 127.034 14.4378 125.645Z" fill="#055D6B" fill-opacity="0.2"/>
<path id="Vector_26" d="M40.4859 112.938C42.5951 111.813 45.19 112.496 46.2317 114.45C47.2734 116.403 46.3942 118.939 44.2851 120.063C42.1759 121.188 39.581 120.505 38.5393 118.551C37.4976 116.597 38.3768 114.062 40.4859 112.938Z" fill="#055D6B" fill-opacity="0.2"/>
<path id="Vector_27" d="M66.4107 100.296C68.0236 99.4357 69.8771 99.9234 70.6737 101.417C71.4702 102.912 70.8423 104.722 69.2294 105.582C67.6165 106.442 65.763 105.954 64.9664 104.46C64.0458 103.033 64.7978 101.156 66.4107 100.296Z" fill="#055D6B" fill-opacity="0.2"/>
<path id="Vector_28" d="M92.2736 87.5392C91.1772 88.1238 90.7274 89.4209 91.2689 90.4365C91.8104 91.452 93.1381 91.8014 94.2344 91.2169C95.3308 90.6323 95.7806 89.3352 95.2391 88.3196C94.6977 87.3041 93.3699 86.9547 92.2736 87.5392Z" fill="#055D6B" fill-opacity="0.2"/>
<path id="Vector_29" d="M0.405282 99.327C3.01075 97.9378 6.16164 98.767 7.44843 101.18C8.73523 103.594 7.66772 106.672 5.06225 108.061C2.45678 109.451 -0.694098 108.621 -1.98089 106.208C-3.26768 103.794 -2.20019 100.716 0.405282 99.327Z" fill="#055D6B" fill-opacity="0.2"/>
<path id="Vector_30" d="M26.3924 86.5041C28.5016 85.3796 31.0965 86.0624 32.1382 88.0161C33.1799 89.9699 32.3007 92.505 30.1915 93.6295C28.0824 94.7541 25.4875 94.0713 24.4458 92.1175C23.4041 90.1638 24.2833 87.6287 26.3924 86.5041Z" fill="#055D6B" fill-opacity="0.2"/>
<path id="Vector_31" d="M52.3172 73.8628C53.9301 73.0028 55.7836 73.4906 56.5802 74.9846C57.3767 76.4787 56.7488 78.2894 55.1359 79.1494C53.523 80.0094 51.6695 79.5216 50.8729 78.0276C50.0763 76.5335 50.7043 74.7228 52.3172 73.8628Z" fill="#055D6B" fill-opacity="0.2"/>
<path id="Vector_32" d="M78.1805 61.1061C77.0842 61.6907 76.6343 62.9878 77.1758 64.0034C77.7173 65.0189 79.045 65.3683 80.1413 64.7838C81.2377 64.1992 81.6875 62.9021 81.146 61.8865C80.6046 60.871 79.2769 60.5216 78.1805 61.1061Z" fill="#055D6B" fill-opacity="0.2"/>
<path id="Vector_33" d="M12.3606 60.186C14.4698 59.0614 17.0646 59.7443 18.1063 61.698C19.148 63.6518 18.2689 66.1869 16.1597 67.3114C14.0505 68.436 11.4557 67.7532 10.414 65.7994C9.37228 63.8457 10.2514 61.3106 12.3606 60.186Z" fill="#055D6B" fill-opacity="0.2"/>
<path id="Vector_34" d="M38.285 47.5444C39.8979 46.6845 41.7514 47.1722 42.548 48.6663C43.3446 50.1603 42.7166 51.9711 41.1037 52.831C39.4908 53.691 37.6374 53.2033 36.8408 51.7092C36.0442 50.2152 36.6721 48.4044 38.285 47.5444Z" fill="#055D6B" fill-opacity="0.2"/>
<path id="Vector_35" d="M64.148 34.7878C63.0516 35.3723 62.6018 36.6695 63.1433 37.685C63.6848 38.7006 65.0125 39.0499 66.1088 38.4654C67.2052 37.8809 67.655 36.5837 67.1135 35.5682C66.5721 34.5526 65.2443 34.2032 64.148 34.7878Z" fill="#055D6B" fill-opacity="0.2"/>
<path id="Vector_36" d="M-1.73286 33.7529C0.376334 32.6283 2.97118 33.3112 4.01287 35.2649C5.05456 37.2187 4.17544 39.7538 2.06624 40.8783C-0.0429472 42.0029 -2.63779 41.3201 -3.67948 39.3663C-4.72117 37.4126 -3.84205 34.8775 -1.73286 33.7529Z" fill="#055D6B" fill-opacity="0.2"/>
<path id="Vector_37" d="M24.1918 21.1113C25.8047 20.2514 27.6582 20.7391 28.4548 22.2332C29.2514 23.7272 28.6234 25.538 27.0105 26.3979C25.3976 27.2579 23.5442 26.7702 22.7476 25.2761C21.951 23.7821 22.5789 21.9713 24.1918 21.1113Z" fill="#055D6B" fill-opacity="0.2"/>
<path id="Vector_38" d="M50.0549 8.3549C48.9586 8.93945 48.5087 10.2366 49.0502 11.2521C49.5917 12.2677 50.9194 12.6171 52.0157 12.0325C53.1121 11.448 53.5619 10.1509 53.0204 9.13531C52.479 8.11976 51.1513 7.77036 50.0549 8.3549Z" fill="#055D6B" fill-opacity="0.2"/>
</g>
</svg>
