<svg width="100" height="100" viewBox="0 0 100 100" fill="none" xmlns="http://www.w3.org/2000/svg">
<g id="devicon:css3-wordmark">
<path id="Vector" d="M69.7141 4.57499H63.9453L69.9445 11.0852V14.1844H57.5883V10.5555H63.5867L57.5883 4.04531V0.942963H69.7141V4.57499ZM55.1383 4.57499H49.3695L55.3687 11.0852V14.1844H43.0117V10.5555H49.0109L43.0117 4.04531V0.942963H55.1383V4.57499ZM40.7055 4.72343H34.4805V10.4039H40.7055V14.1844H30.0555V0.942963H40.7055V4.72343Z" fill="#131313"/>
<path id="Vector_2" d="M21.5727 91.1766L15.2469 20.2289H84.7523L78.4211 91.1649L49.957 99.057L21.5727 91.1766Z" fill="#055D6B"/>
<path id="Vector_3" d="M50.0008 93.025L73 86.6484L78.4109 26.0305H50.0008V93.025Z" fill="#008089"/>
<path id="Vector_4" d="M50 51.7344H61.5141L62.3102 42.8242H50V34.1227H71.8195L71.6109 36.457L69.4727 60.4352H50V51.7344Z" fill="white"/>
<path id="Vector_5" d="M50.0523 74.3328L50.0141 74.3437L40.3234 71.7266L39.7031 64.7867H30.9695L32.1891 78.4492L50.0125 83.3969L50.0531 83.3852L50.0523 74.3328Z" fill="#EBEBEB"/>
<path id="Vector_6" d="M60.775 60.0672L59.7266 71.7203L50.0219 74.3399V83.393L67.8602 78.4492L67.9914 76.9789L69.5055 60.0672H60.775Z" fill="white"/>
<path id="Vector_7" d="M50.0305 34.1227V42.8234H29.0125L28.8375 40.868L28.4414 36.457L28.2328 34.1227H50.0305ZM50 51.7352V60.4367H40.432L40.2578 58.4812L39.8609 54.0695L39.6524 51.7352H50Z" fill="#EBEBEB"/>
</g>
</svg>
