<svg width="129" height="101" viewBox="0 0 129 101" fill="none" xmlns="http://www.w3.org/2000/svg">
<g id="asset 16 3" clip-path="url(#clip0_4_851)">
<path id="Vector" d="M112.288 18.2089C112.335 18.0261 112.299 17.8611 112.099 17.7317C112.099 17.7317 111.416 17.3613 110.25 16.75C110.05 16.6206 109.821 16.7565 109.692 16.9572C109.563 17.1578 109.699 17.3875 109.899 17.5169C111.065 18.1282 111.666 18.5164 111.666 18.5164C111.866 18.6458 112.113 18.5924 112.242 18.3917C112.224 18.3092 112.306 18.2914 112.288 18.2089Z" fill="#FF9000"/>
<path id="Vector_2" d="M106.631 15.5471C106.503 15.7477 106.274 15.8837 106.073 15.7543C104.743 15.1786 103.431 14.6854 102.119 14.1922C101.936 14.1453 101.8 13.9156 101.829 13.6503C101.876 13.4674 102.105 13.3315 102.369 13.3605C103.681 13.8537 105.076 14.3291 106.324 14.9226C106.606 15.0342 106.66 15.2817 106.631 15.5471C106.613 15.4646 106.613 15.4646 106.631 15.5471ZM98.593 12.6235C98.5465 12.8064 98.3177 12.9423 98.053 12.9132C97.6061 12.8373 97.2235 12.661 96.7765 12.5851C95.7824 12.3685 94.8706 12.134 93.8765 11.9174C93.6119 11.8884 93.476 11.6587 93.5225 11.4758C93.5512 11.2105 93.78 11.0745 93.9624 11.1214C94.9565 11.338 95.8683 11.5724 96.8624 11.789C97.3094 11.865 97.692 12.0413 98.139 12.1172C98.5859 12.1932 98.6396 12.4407 98.593 12.6235ZM89.8715 11.3164C88.4662 11.1888 87.0609 11.0613 85.6913 11.0988C85.4267 11.0697 85.3087 10.9225 85.2551 10.675C85.2837 10.4097 85.4303 10.2915 85.6771 10.2381C87.0645 10.2831 88.5342 10.3103 89.9396 10.4379C90.2042 10.4669 90.34 10.6966 90.2935 10.8795C90.2935 10.8795 90.2935 10.8795 90.3114 10.962C90.2828 11.2273 90.0539 11.3633 89.8715 11.3164ZM76.8042 46.7976C76.1675 48.2312 75.1947 49.3056 73.9037 50.1035C73.6748 50.2394 73.4924 50.1926 73.3566 49.9628C73.2207 49.7331 73.2672 49.5503 73.4961 49.4144C74.6405 48.7346 75.4488 47.6958 76.039 46.445C76.1677 46.2444 76.3966 46.1084 76.5968 46.2378C76.7792 46.2847 76.8328 46.5322 76.8042 46.7976C76.7863 46.7151 76.7863 46.7151 76.8042 46.7976ZM77.3339 42.8822C77.0872 42.9356 76.8691 42.7237 76.9156 42.5409C76.8299 41.3502 76.1506 40.2016 74.9957 39.2424C74.7955 39.113 74.8241 38.8477 74.9529 38.647C75.0816 38.4464 75.3462 38.4755 75.5465 38.6049C76.8194 39.7112 77.6345 41.0895 77.7559 42.4453C77.7738 42.5278 77.7738 42.5278 77.7917 42.6103C77.645 42.7284 77.4984 42.8466 77.3339 42.8822ZM81.5181 11.3116C80.0842 11.4494 78.7682 11.7344 77.37 12.0372C77.1232 12.0906 76.923 11.9612 76.8694 11.7137C76.8158 11.4662 76.9445 11.2655 77.1913 11.2121C78.5716 10.8268 79.9877 10.6065 81.4217 10.4687C81.6684 10.4152 81.8866 10.6271 81.84 10.81C81.8579 10.8925 81.8579 10.8925 81.8758 10.975C81.8293 11.1578 81.7005 11.3584 81.5181 11.3116ZM69.7161 51.4423C68.3644 51.5623 66.9591 51.4348 65.5001 51.0597L65.4 50.995C65.2176 50.9481 65.0818 50.7184 65.1104 50.4531C65.1569 50.2702 65.3858 50.1343 65.6504 50.1634L65.7506 50.2281C67.1094 50.5384 68.4324 50.6838 69.7019 50.5816C69.9487 50.5282 70.1668 50.7401 70.1381 51.0054C70.156 51.0879 70.156 51.0879 70.1739 51.1704C70.0272 51.2886 69.8806 51.4067 69.7161 51.4423ZM71.9028 36.889C71.8563 37.0718 71.5452 37.2256 71.345 37.0962C70.78 36.873 70.1328 36.6677 69.5034 36.5449C68.774 36.3573 68.0624 36.2523 67.3508 36.1473C67.0861 36.1182 66.9503 35.8885 66.9968 35.7057C67.0254 35.4403 67.2543 35.3044 67.4367 35.3513C68.2305 35.4385 68.96 35.626 69.6895 35.8135C70.3367 36.0189 70.9839 36.2242 71.6311 36.4296C71.8957 36.4586 72.0316 36.6884 71.9028 36.889C71.9851 36.8712 71.9028 36.889 71.9028 36.889ZM73.447 13.4051C72.1846 13.9376 70.9401 14.5527 69.7135 15.2502C69.4846 15.3862 69.2844 15.2568 69.1664 15.1096C69.0305 14.8798 69.1593 14.6792 69.3059 14.5611C70.5326 13.8635 71.8414 13.1481 73.1217 12.6981C73.3684 12.6447 73.5508 12.6916 73.6867 12.9213C73.7045 13.0038 73.7224 13.0863 73.7403 13.1688C73.5758 13.2044 73.5114 13.3047 73.447 13.4051ZM61.9209 49.2435C61.7921 49.4442 61.5453 49.4976 61.3451 49.3682C60.0614 48.6097 58.9244 47.733 57.8518 46.756C57.7338 46.6088 57.6802 46.3613 57.8089 46.1606C57.9555 46.0425 58.2023 45.9891 58.4025 46.1185C59.3929 47.1133 60.5121 47.9074 61.6956 48.6013C61.8959 48.7307 61.9316 48.8957 61.8851 49.0785C61.9852 49.1432 61.903 49.161 61.9209 49.2435ZM63.2528 35.9119C61.8832 35.9494 60.4492 36.0872 59.1332 36.3722C58.8865 36.4256 58.6863 36.2962 58.6327 36.0487C58.579 35.8012 58.7078 35.6005 58.9546 35.5471C60.3706 35.3268 61.7867 35.1065 63.2386 35.0512C63.4853 34.9977 63.6212 35.2274 63.6748 35.475L63.6927 35.5575C63.5818 35.8406 63.4351 35.9588 63.2528 35.9119ZM66.1695 17.5726C65.0608 18.4173 63.97 19.3446 63.0616 20.3187C62.915 20.4369 62.6683 20.4903 62.468 20.3609C62.35 20.2137 62.2964 19.9662 62.5074 19.7477C63.4981 18.7558 64.5889 17.8285 65.6796 16.9012C65.8263 16.7831 66.0909 16.8122 66.2911 16.9416C66.3912 17.0063 66.427 17.1713 66.3626 17.2716C66.3161 17.4544 66.2517 17.5548 66.1695 17.5726ZM55.914 43.375C55.6851 43.511 55.4849 43.3816 55.3491 43.1519C54.7163 41.8205 54.3303 40.4356 54.1731 38.9149C54.1195 38.6673 54.3305 38.4489 54.5129 38.4957C54.7596 38.4423 54.9777 38.6542 54.9312 38.837C55.0705 40.2753 55.4387 41.5776 56.0357 42.744C56.0536 42.8265 56.0714 42.909 56.0893 42.9915C56.0607 43.2569 55.9963 43.3572 55.914 43.375ZM60.3078 23.5065C59.4351 24.6457 58.6447 25.767 57.9544 26.9531C57.8256 27.1537 57.5789 27.2072 57.3786 27.0778C57.1784 26.9484 57.1248 26.7008 57.2535 26.5002C57.9439 25.3142 58.7986 24.0925 59.6713 22.9533C59.8001 22.7527 60.0647 22.7817 60.2649 22.9111C60.3829 23.0583 60.4187 23.2234 60.4365 23.3059C60.3721 23.4062 60.3078 23.5065 60.3078 23.5065ZM55.0566 37.4278C53.7763 37.8779 52.4138 38.3457 51.1693 38.9607C50.9404 39.0967 50.7402 38.9673 50.6044 38.7376C50.4685 38.5079 50.5973 38.3072 50.8261 38.1713C52.1529 37.5384 53.4975 36.9881 54.7956 36.6206C55.0424 36.5671 55.2426 36.6965 55.2783 36.8615C55.2962 36.944 55.3141 37.0266 55.3319 37.1091C55.2854 37.2919 55.1388 37.41 55.0566 37.4278ZM56.2017 30.7878C55.7116 32.1032 55.3217 33.4834 55.0962 34.8279C55.0676 35.0932 54.8387 35.2292 54.6563 35.1823C54.3917 35.1532 54.2559 34.9235 54.3024 34.7407C54.5278 33.3962 54.8999 31.9335 55.3721 30.5356C55.4186 30.3527 55.7297 30.199 55.93 30.3284C56.0945 30.2928 56.2303 30.5225 56.2017 30.7878C56.1838 30.7053 56.1838 30.7053 56.2017 30.7878ZM47.4894 41.0534C46.3629 41.8156 45.2543 42.6604 44.1635 43.5877C44.0169 43.7058 43.7701 43.7592 43.552 43.5473C43.434 43.4001 43.3804 43.1526 43.5914 42.9341C44.6643 41.9244 45.8552 41.0618 46.9817 40.2996C47.2106 40.1636 47.393 40.2105 47.5288 40.4402C47.629 40.5049 47.5824 40.6877 47.6003 40.7702C47.6182 40.8528 47.5538 40.9531 47.4894 41.0534ZM41.2738 46.5457C40.3832 47.6024 39.5106 48.7415 38.7201 49.8629C38.5914 50.0635 38.3446 50.117 38.1444 49.9876C37.9442 49.8582 37.8906 49.6107 38.0193 49.41C38.8741 48.1884 39.7468 47.0492 40.6373 45.9925C40.7661 45.7919 41.0307 45.821 41.2309 45.9504C41.3489 46.0976 41.3847 46.2626 41.3203 46.3629C41.3382 46.4454 41.2738 46.5457 41.2738 46.5457ZM36.4847 53.4567C35.7944 54.6427 35.2042 55.8934 34.5497 57.2445C34.4209 57.4452 34.192 57.5811 33.9918 57.4517C33.7916 57.3223 33.6557 57.0926 33.7845 56.892C34.3568 55.5587 35.0292 54.2902 35.7195 53.1041C35.8483 52.9035 36.095 52.85 36.2953 52.9794C36.4955 53.1088 36.5312 53.2738 36.4847 53.4567C36.567 53.4388 36.4847 53.4567 36.4847 53.4567ZM32.9794 61.1261C32.4893 62.4416 31.9992 63.757 31.6093 65.1371C31.5628 65.32 31.3339 65.4559 31.0693 65.4268C30.8869 65.38 30.751 65.1503 30.7797 64.8849C31.1696 63.5048 31.6597 62.1893 32.1498 60.8739C32.1963 60.6911 32.5074 60.5373 32.7076 60.6667C32.9723 60.6958 33.008 60.8608 32.9794 61.1261Z" fill="#FF9000"/>
<path id="Vector_3" d="M30.0923 71.253C30.0923 71.253 30.2605 70.4392 30.5038 69.1772C30.5503 68.9944 30.4144 68.7646 30.2142 68.6353C30.0318 68.5884 29.803 68.7243 29.6742 68.925C29.3486 70.2048 29.2449 70.9183 29.2627 71.0008C29.2341 71.2661 29.3521 71.4133 29.6167 71.4424C29.8348 71.6543 30.0637 71.5184 30.0923 71.253Z" fill="#FF9000"/>
<path id="Vector_4" d="M32.3622 77.758L29.1866 79.396C29.1866 79.396 25.1086 90.3854 25.0621 90.5683C24.9155 90.6864 20.5916 95.769 20.5916 95.769L22.005 88.3799L26.7338 76.8175L32.3622 77.758Z" fill="#FF9000"/>
<path id="Vector_5" d="M21.5314 72.6752L20.5916 95.769L26.6516 76.8353L21.5314 72.6752Z" fill="#FF9000"/>
<path id="Vector_6" d="M29.1866 79.396L34.7073 83.8149L20.5916 95.769L29.1866 79.396Z" fill="#FF9000"/>
</g>
<defs>
<clipPath id="clip0_4_851">
<rect width="78.1743" height="113.778" fill="white" transform="translate(16.99 100.609) rotate(-102.22)"/>
</clipPath>
</defs>
</svg>
