<svg width="480" height="775" viewBox="0 0 480 775" fill="none" xmlns="http://www.w3.org/2000/svg">
<path d="M263.663 717.763C250.818 724.612 245.548 739.809 251.892 751.708C258.236 763.606 273.792 767.7 286.637 760.851C299.482 754.002 304.752 738.805 298.408 726.907C292.064 715.008 276.508 710.915 263.663 717.763Z" fill="#013A67" fill-opacity="0.52"/>
<path d="M326.777 686.986C338.255 680.866 352.243 684.547 357.912 695.18C363.581 705.812 358.842 719.478 347.364 725.597C335.886 731.717 321.898 728.036 316.229 717.404C310.56 706.772 315.299 693.106 326.777 686.986Z" fill="#013A67" fill-opacity="0.52"/>
<path d="M378.585 675.76C379.291 686.55 389.045 694.191 400.373 692.827C411.7 691.463 420.31 681.61 419.604 670.82C418.899 660.03 409.144 652.389 397.817 653.753C386.49 655.117 377.879 664.97 378.585 675.76Z" fill="#013A67" fill-opacity="0.52"/>
<path d="M452.885 625.147C443.877 629.95 440.181 640.608 444.63 648.953C449.078 657.297 459.988 660.168 468.996 655.365C478.004 650.562 481.7 639.904 477.251 631.56C472.802 623.215 461.893 620.344 452.885 625.147Z" fill="#013A67" fill-opacity="0.52"/>
<path d="M229.353 653.411C216.508 660.259 211.238 675.457 217.581 687.355C223.925 699.254 239.481 703.347 252.326 696.499C265.171 689.65 270.441 674.452 264.098 662.554C257.754 650.656 242.198 646.562 229.353 653.411Z" fill="#013A67" fill-opacity="0.52"/>
<path d="M292.617 622.913C304.095 616.793 318.083 620.474 323.752 631.106C329.421 641.738 324.681 655.404 313.203 661.524C301.725 667.644 287.737 663.963 282.069 653.331C276.4 642.699 281.139 629.033 292.617 622.913Z" fill="#013A67" fill-opacity="0.52"/>
<path d="M347.191 599.728C341.215 609.32 344.192 621.253 353.841 626.381C363.49 631.509 376.157 627.891 382.133 618.299C388.109 608.708 385.132 596.775 375.483 591.647C365.834 586.519 353.168 590.137 347.191 599.728Z" fill="#013A67" fill-opacity="0.52"/>
<path d="M418.575 560.796C409.567 565.599 405.871 576.257 410.32 584.601C414.769 592.946 425.678 595.816 434.686 591.013C443.695 586.21 447.391 575.552 442.942 567.208C438.493 558.864 427.583 555.993 418.575 560.796Z" fill="#013A67" fill-opacity="0.52"/>
<path d="M481.688 530.019C489.24 525.992 498.716 528.486 502.445 535.481C506.174 542.476 502.964 551.733 495.413 555.759C487.861 559.786 478.386 557.292 474.656 550.297C470.927 543.302 474.137 534.045 481.688 530.019Z" fill="#013A67" fill-opacity="0.52"/>
<path d="M195.191 589.339C182.346 596.187 177.075 611.385 183.419 623.283C189.763 635.181 205.319 639.275 218.164 632.426C231.009 625.578 236.279 610.38 229.935 598.482C223.591 586.583 208.036 582.49 195.191 589.339Z" fill="#013A67" fill-opacity="0.52"/>
<path d="M258.304 558.562C269.782 552.442 283.77 556.123 289.439 566.755C295.108 577.387 290.369 591.053 278.891 597.173C267.413 603.293 253.425 599.612 247.756 588.98C242.087 578.348 246.826 564.682 258.304 558.562Z" fill="#013A67" fill-opacity="0.52"/>
<path d="M310.133 547.301C310.839 558.091 320.593 565.732 331.92 564.368C343.248 563.004 351.858 553.151 351.152 542.361C350.447 531.571 340.692 523.93 329.365 525.294C318.037 526.658 309.427 536.511 310.133 547.301Z" fill="#013A67" fill-opacity="0.52"/>
<path d="M384.412 496.724C375.404 501.527 371.708 512.185 376.157 520.529C380.606 528.873 391.515 531.744 400.523 526.941C409.531 522.138 413.227 511.48 408.778 503.136C404.329 494.792 393.42 491.921 384.412 496.724Z" fill="#013A67" fill-opacity="0.52"/>
<path d="M447.527 465.947C455.078 461.921 464.554 464.414 468.283 471.409C472.013 478.404 468.802 487.662 461.251 491.688C453.7 495.714 444.224 493.22 440.494 486.226C436.616 478.951 439.975 469.973 447.527 465.947Z" fill="#013A67" fill-opacity="0.52"/>
<path d="M160.879 524.986C148.034 531.835 142.764 547.032 149.107 558.931C155.451 570.829 171.007 574.922 183.852 568.074C196.697 561.225 201.967 546.028 195.624 534.129C189.28 522.231 173.724 518.137 160.879 524.986Z" fill="#013A67" fill-opacity="0.52"/>
<path d="M223.994 494.209C235.472 488.089 249.46 491.77 255.128 502.402C260.797 513.034 256.058 526.7 244.58 532.82C233.102 538.94 219.114 535.259 213.445 524.627C207.776 513.995 212.516 500.329 223.994 494.209Z" fill="#013A67" fill-opacity="0.52"/>
<path d="M287.137 463.427C297.406 457.952 309.59 461.158 314.662 470.671C319.734 480.183 315.606 492.086 305.336 497.562C295.067 503.037 282.883 499.831 277.811 490.318C272.888 481.085 276.867 468.903 287.137 463.427Z" fill="#013A67" fill-opacity="0.52"/>
<path d="M350.101 432.372C341.093 437.175 337.397 447.833 341.846 456.177C346.295 464.521 357.204 467.392 366.212 462.589C375.22 457.786 378.916 447.128 374.467 438.784C370.018 430.44 359.109 427.569 350.101 432.372Z" fill="#013A67" fill-opacity="0.52"/>
<path d="M413.216 401.595C420.767 397.568 430.243 400.062 433.972 407.057C437.702 414.052 434.491 423.309 426.94 427.335C419.389 431.362 409.913 428.868 406.184 421.873C402.454 414.878 405.664 405.621 413.216 401.595Z" fill="#013A67" fill-opacity="0.52"/>
<path d="M476.33 370.818C482.673 367.436 490.344 369.455 493.477 375.331C496.61 381.206 494.011 388.7 487.668 392.082C481.325 395.464 473.654 393.446 470.521 387.57C467.388 381.695 469.987 374.2 476.33 370.818Z" fill="#013A67" fill-opacity="0.52"/>
<path d="M126.72 460.912C113.874 467.761 108.604 482.958 114.948 494.857C121.292 506.755 136.848 510.849 149.693 504C162.538 497.151 167.808 481.954 161.464 470.055C155.12 458.157 139.565 454.063 126.72 460.912Z" fill="#013A67" fill-opacity="0.52"/>
<path d="M189.832 430.138C201.31 424.018 215.298 427.699 220.967 438.331C226.635 448.963 221.896 462.629 210.418 468.749C198.94 474.869 184.952 471.188 179.283 460.556C173.615 449.924 178.354 436.258 189.832 430.138Z" fill="#013A67" fill-opacity="0.52"/>
<path d="M252.975 399.355C263.245 393.88 275.428 397.086 280.5 406.599C285.572 416.112 281.445 428.014 271.175 433.49C260.905 438.966 248.722 435.759 243.65 426.247C238.578 416.734 242.705 404.831 252.975 399.355Z" fill="#013A67" fill-opacity="0.52"/>
<path d="M315.938 368.299C306.93 373.102 303.234 383.76 307.683 392.105C312.132 400.449 323.041 403.32 332.05 398.517C341.058 393.714 344.754 383.056 340.305 374.711C335.856 366.367 324.947 363.496 315.938 368.299Z" fill="#013A67" fill-opacity="0.52"/>
<path d="M379.054 337.522C386.605 333.496 396.081 335.99 399.81 342.985C403.54 349.979 400.33 359.237 392.778 363.263C385.227 367.289 375.751 364.796 372.022 357.801C368.143 350.526 371.503 341.549 379.054 337.522Z" fill="#013A67" fill-opacity="0.52"/>
<path d="M442.02 306.466C448.363 303.084 456.034 305.102 459.167 310.978C462.3 316.854 459.701 324.348 453.358 327.73C447.014 331.112 439.344 329.093 436.211 323.218C433.078 317.342 435.677 309.848 442.02 306.466Z" fill="#013A67" fill-opacity="0.52"/>
<path d="M92.4069 396.561C79.5619 403.41 74.2916 418.607 80.6356 430.506C86.9795 442.404 102.535 446.498 115.38 439.649C128.225 432.8 133.496 417.603 127.152 405.705C120.808 393.806 105.252 389.713 92.4069 396.561Z" fill="#013A67" fill-opacity="0.52"/>
<path d="M155.521 365.786C166.999 359.666 180.987 363.347 186.656 373.979C192.325 384.611 187.585 398.277 176.108 404.397C164.63 410.517 150.641 406.835 144.973 396.203C139.304 385.571 144.043 371.905 155.521 365.786Z" fill="#013A67" fill-opacity="0.52"/>
<path d="M207.299 354.663C208.005 365.453 217.76 373.094 229.087 371.73C240.414 370.365 249.024 360.512 248.319 349.723C247.613 338.933 237.858 331.292 226.531 332.656C215.204 334.02 206.593 343.873 207.299 354.663Z" fill="#013A67" fill-opacity="0.52"/>
<path d="M281.628 303.947C272.62 308.75 268.924 319.408 273.373 327.753C277.822 336.097 288.731 338.968 297.74 334.165C306.748 329.362 310.444 318.704 305.995 310.36C301.546 302.015 290.637 299.145 281.628 303.947Z" fill="#013A67" fill-opacity="0.52"/>
<path d="M344.743 273.17C352.294 269.144 361.77 271.637 365.499 278.632C369.229 285.627 366.018 294.885 358.467 298.911C350.916 302.937 341.44 300.443 337.711 293.449C333.981 286.454 337.192 277.196 344.743 273.17Z" fill="#013A67" fill-opacity="0.52"/>
<path d="M407.858 242.394C414.201 239.012 421.872 241.031 425.004 246.906C428.137 252.782 425.538 260.276 419.195 263.658C412.852 267.04 405.181 265.021 402.048 259.146C398.916 253.27 401.514 245.776 407.858 242.394Z" fill="#013A67" fill-opacity="0.52"/>
<path d="M471.124 211.177C476.259 208.439 482.576 210.101 485.112 214.858C487.648 219.614 485.508 225.786 480.373 228.524C475.238 231.262 468.921 229.599 466.385 224.843C463.849 220.086 465.989 213.914 471.124 211.177Z" fill="#013A67" fill-opacity="0.52"/>
<path d="M58.2465 332.49C45.4015 339.338 40.1312 354.536 46.4752 366.434C52.8191 378.333 68.3749 382.426 81.2199 375.577C94.065 368.729 99.3352 353.531 92.9912 341.633C86.6473 329.735 71.0916 325.641 58.2465 332.49Z" fill="#013A67" fill-opacity="0.52"/>
<path d="M121.36 301.714C132.838 295.594 146.826 299.275 152.495 309.907C158.163 320.539 153.424 334.205 141.946 340.325C130.468 346.445 116.48 342.763 110.811 332.131C105.143 321.499 109.882 307.833 121.36 301.714Z" fill="#013A67" fill-opacity="0.52"/>
<path d="M173.241 290.412C173.946 301.202 183.701 308.843 195.028 307.478C206.356 306.114 214.966 296.261 214.26 285.471C213.554 274.681 203.8 267.04 192.473 268.405C181.145 269.769 172.535 279.622 173.241 290.412Z" fill="#013A67" fill-opacity="0.52"/>
<path d="M247.467 239.874C238.459 244.677 234.763 255.335 239.212 263.679C243.661 272.024 254.57 274.895 263.579 270.092C272.587 265.289 276.283 254.631 271.834 246.286C267.385 237.942 256.476 235.071 247.467 239.874Z" fill="#013A67" fill-opacity="0.52"/>
<path d="M310.581 209.098C318.133 205.072 327.608 207.566 331.338 214.561C335.067 221.555 331.857 230.813 324.306 234.839C316.754 238.865 307.279 236.372 303.549 229.377C299.67 222.102 303.03 213.124 310.581 209.098Z" fill="#013A67" fill-opacity="0.52"/>
<path d="M373.695 178.322C367.356 181.702 364.755 189.202 367.886 195.074C371.016 200.946 378.693 202.966 385.032 199.586C391.372 196.206 393.972 188.706 390.842 182.834C387.711 176.963 380.034 174.942 373.695 178.322Z" fill="#013A67" fill-opacity="0.52"/>
<path d="M436.963 147.104C442.098 144.366 448.415 146.029 450.951 150.785C453.487 155.542 451.347 161.713 446.212 164.451C441.077 167.189 434.76 165.527 432.224 160.77C429.688 156.014 431.828 149.842 436.963 147.104Z" fill="#013A67" fill-opacity="0.52"/>
<path d="M23.935 268.137C11.09 274.986 5.81974 290.183 12.1637 302.082C18.5076 313.98 34.0634 318.074 46.9084 311.225C59.7535 304.376 65.0237 289.179 58.6797 277.281C52.3358 265.382 36.7801 261.289 23.935 268.137Z" fill="#013A67" fill-opacity="0.52"/>
<path d="M87.0491 237.362C98.527 231.242 112.515 234.923 118.184 245.555C123.853 256.187 119.114 269.853 107.636 275.973C96.1576 282.093 82.1695 278.412 76.5007 267.78C70.832 257.148 75.5711 243.482 87.0491 237.362Z" fill="#013A67" fill-opacity="0.52"/>
<path d="M138.847 226.202C139.552 236.992 149.307 244.633 160.634 243.269C171.961 241.905 180.572 232.052 179.866 221.262C179.16 210.472 169.406 202.831 158.078 204.195C146.751 205.559 138.141 215.412 138.847 226.202Z" fill="#013A67" fill-opacity="0.52"/>
<path d="M213.156 175.522C204.148 180.325 200.452 190.983 204.901 199.328C209.35 207.672 220.259 210.543 229.267 205.74C238.275 200.937 241.971 190.279 237.522 181.935C233.073 173.59 222.164 170.719 213.156 175.522Z" fill="#013A67" fill-opacity="0.52"/>
<path d="M276.269 144.746C283.821 140.72 293.297 143.213 297.026 150.208C300.755 157.203 297.545 166.46 289.994 170.487C282.442 174.513 272.967 172.019 269.237 165.024C265.508 158.03 268.718 148.772 276.269 144.746Z" fill="#013A67" fill-opacity="0.52"/>
<path d="M339.385 113.97C345.728 110.588 353.399 112.606 356.532 118.482C359.664 124.358 357.065 131.852 350.722 135.234C344.379 138.616 336.708 136.597 333.576 130.722C330.443 124.846 333.042 117.352 339.385 113.97Z" fill="#013A67" fill-opacity="0.52"/>
<path d="M402.652 82.7523C407.787 80.0145 414.104 81.677 416.64 86.4334C419.176 91.1899 417.036 97.3616 411.901 100.099C406.766 102.837 400.449 101.175 397.913 96.4183C395.377 91.6619 397.517 85.4901 402.652 82.7523Z" fill="#013A67" fill-opacity="0.52"/>
<path d="M465.767 51.976C469.693 49.8824 474.206 51.0698 476.145 54.7071C478.084 58.3444 476.555 62.7528 472.629 64.8464C468.702 66.94 464.19 65.7526 462.25 62.1153C460.311 58.478 461.84 54.0696 465.767 51.976Z" fill="#013A67" fill-opacity="0.52"/>
</svg>
