<svg width="100" height="100" viewBox="0 0 100 100" fill="none" xmlns="http://www.w3.org/2000/svg">
<g id="devicon:html5-wordmark">
<path id="Vector" d="M21.7609 90.9016L15.4774 20.4242H84.5227L78.2328 90.8906L49.9578 98.7289L21.7609 90.9016Z" fill="#055D6B"/>
<path id="Vector_2" d="M50 92.7375L72.8469 86.4031L78.2227 26.1875H50V92.7375Z" fill="#008089"/>
<path id="Vector_3" d="M50 52.3266H38.5617L37.7727 43.4742H50V34.8305H28.3258L28.5321 37.15L30.6571 60.9695H50V52.3266ZM50 74.7742L49.9617 74.7844L40.336 72.1844L39.7203 65.2914H31.043L32.2539 78.8633L49.9602 83.7789L50 83.7672V74.7742Z" fill="#EBEBEB"/>
<path id="Vector_4" d="M21.9016 1.27109H26.2937V5.61171H30.3125V1.27109H34.7055V14.4133H30.3125V10.0125H26.2945V14.4133H21.9016V1.27109ZM40.4812 5.62968H36.6141V1.27109H48.743V5.62968H44.8742V14.4133H40.4812V5.62968ZM50.668 1.27109H55.2476L58.0656 5.88906L60.8805 1.27109H65.4625V14.4133H61.0867V7.89921L58.0656 12.5719H57.989L54.9656 7.89921V14.4133H50.6672V1.27109H50.668ZM67.6492 1.27109H72.043V10.0695H78.2203V14.4141H67.6492V1.27109Z" fill="black"/>
<path id="Vector_5" d="M49.9703 52.3266V60.9695H60.6141L59.611 72.1797L49.9703 74.782V83.7742L67.6906 78.8633L67.8203 77.4023L69.8516 54.6469L70.0625 52.3266H67.7328H49.9703ZM49.9703 34.8305V43.4742H70.8492L71.0219 41.5313L71.4164 37.15L71.6235 34.8305H49.9703Z" fill="white"/>
</g>
</svg>
