<svg width="70" height="80" viewBox="0 0 70 80" fill="none" xmlns="http://www.w3.org/2000/svg">
<g id="skill-icons:javascript" clip-path="url(#clip0_0_65)">
<g id="Group">
<path id="Vector" d="M53.5938 0H16.4062C7.34533 0 0 8.39466 0 18.75V61.25C0 71.6053 7.34533 80 16.4062 80H53.5938C62.6547 80 70 71.6053 70 61.25V18.75C70 8.39466 62.6547 0 53.5938 0Z" fill="#055D6B"/>
<path id="Vector_2" d="M18.4056 66.8538L23.7622 63.1488C24.7958 65.2428 25.7359 67.0147 27.991 67.0147C30.1525 67.0147 31.5153 66.0484 31.5153 62.2897V36.7278H38.0937V62.3959C38.0937 70.1825 34.0998 73.7269 28.2729 73.7269C23.0106 73.7269 19.956 70.6122 18.4053 66.8531M41.6667 66.0481L47.0228 62.5041C48.4329 65.1356 50.2655 67.0688 53.5073 67.0688C56.2332 67.0688 57.9712 65.5113 57.9712 63.3631C57.9712 60.7856 56.1856 59.8725 53.1784 58.3694L51.5342 57.5634C46.7881 55.2547 43.6398 52.3547 43.6398 46.2328C43.6398 40.5941 47.399 36.2978 53.2727 36.2978C57.4547 36.2978 60.4619 37.9628 62.6232 42.3125L57.5014 46.0716C56.3735 43.7625 55.1523 42.8497 53.2727 42.8497C51.3461 42.8497 50.1244 44.2459 50.1244 46.0716C50.1244 48.3269 51.3461 49.24 54.1652 50.6366L55.8097 51.4419C61.4012 54.1809 64.5496 56.9728 64.5496 63.2556C64.5496 70.0225 59.8978 73.7275 53.6484 73.7275C47.5401 73.7275 43.593 70.3981 41.6667 66.0481Z" fill="white"/>
</g>
</g>
<defs>
<clipPath id="clip0_0_65">
<rect width="70" height="80" fill="white"/>
</clipPath>
</defs>
</svg>
