<svg width="214" height="203" viewBox="0 0 214 203" fill="none" xmlns="http://www.w3.org/2000/svg">
<g id="asset 16 2" clip-path="url(#clip0_0_347)">
<path id="Vector" d="M21.3052 84.2198C21.0445 84.3744 20.8876 84.6008 20.9385 84.9712C20.9385 84.9712 21.1948 86.154 21.6565 88.1494C21.7073 88.5197 22.0973 88.6222 22.4618 88.5395C22.8263 88.4568 22.9577 88.0451 22.9069 87.6748C22.4452 85.6795 22.2927 84.5685 22.2927 84.5685C22.2419 84.1982 21.9304 83.9825 21.5659 84.0652C21.4874 84.1784 21.3836 84.1065 21.3052 84.2198Z" fill="#013A67"/>
<path id="Vector_2" d="M23.9023 93.5586C24.2668 93.476 24.6567 93.5784 24.7076 93.9487C25.377 96.0879 26.1248 98.1139 26.8727 100.14C27.0019 100.397 26.8705 100.809 26.5314 101.076C26.2707 101.231 25.8808 101.129 25.6477 100.8C24.8998 98.7736 24.0481 96.6757 23.4825 94.6085C23.3279 94.1662 23.5632 93.8265 23.9023 93.5586C23.8239 93.6719 23.8239 93.6719 23.9023 93.5586ZM28.5971 105.858C28.8578 105.704 29.2477 105.806 29.4808 106.135C29.8431 106.721 30.0232 107.348 30.3855 107.934C31.1356 109.292 31.7818 110.577 32.5318 111.934C32.7649 112.263 32.6335 112.675 32.3728 112.829C32.0337 113.097 31.6437 112.995 31.5145 112.738C30.7644 111.38 30.1182 110.095 29.3682 108.738C29.0058 108.152 28.8258 107.525 28.4634 106.938C28.1011 106.352 28.3364 106.013 28.5971 105.858ZM35.8712 117.095C37.1404 118.812 38.4096 120.529 39.8357 122.019C40.0688 122.348 40.0158 122.646 39.7805 122.986C39.4414 123.254 39.1553 123.223 38.8438 123.008C37.4961 121.404 36.0446 119.729 34.7754 118.012C34.5423 117.683 34.6738 117.271 34.9345 117.117C34.9345 117.117 34.9345 117.117 35.0129 117.004C35.352 116.736 35.7419 116.838 35.8712 117.095ZM90.5407 91.6164C92.8593 90.7086 95.0972 90.5828 97.333 91.1257C97.7229 91.2282 97.8522 91.4853 97.7207 91.8969C97.5893 92.3086 97.3286 92.4632 96.9387 92.3607C94.989 91.8483 92.9587 92.118 90.9008 92.8711C90.5363 92.9538 90.1464 92.8513 90.0955 92.481C89.9663 92.224 90.2016 91.8842 90.5407 91.6164C90.4623 91.7296 90.4623 91.7296 90.5407 91.6164ZM85.4286 95.4489C85.7401 95.6646 85.7125 96.1481 85.4518 96.3027C84.1461 97.7444 83.4889 99.8027 83.5331 102.179C83.5839 102.549 83.2448 102.817 82.8803 102.9C82.5158 102.983 82.2827 102.654 82.2319 102.283C82.2407 99.6085 83.0294 97.1386 84.4918 95.4704C84.5703 95.3572 84.5703 95.3572 84.6487 95.2439C84.9348 95.2745 85.2209 95.305 85.4286 95.4489ZM44.2962 126.448C45.9046 127.897 47.5659 129.048 49.3311 130.27C49.6426 130.486 49.6935 130.856 49.4582 131.196C49.2229 131.536 48.8584 131.619 48.5469 131.403C46.7032 130.294 45.0165 128.958 43.4081 127.509C43.0966 127.293 43.1242 126.81 43.3849 126.655C43.4634 126.542 43.4634 126.542 43.5418 126.429C43.8025 126.274 44.167 126.191 44.2962 126.448ZM103.125 94.2986C104.629 95.6756 105.898 97.3924 106.932 99.4489L106.958 99.6341C107.087 99.8911 106.955 100.303 106.616 100.571C106.356 100.725 105.966 100.623 105.733 100.294L105.707 100.109C104.699 98.2373 103.533 96.5924 102.133 95.2873C101.821 95.0716 101.849 94.588 102.188 94.3202C102.266 94.2069 102.266 94.2069 102.345 94.0937C102.631 94.1243 102.917 94.1548 103.125 94.2986ZM83.9032 108.3C84.1639 108.146 84.6577 108.32 84.7085 108.69C85.0178 109.575 85.431 110.531 85.9225 111.374C86.4395 112.402 87.0349 113.317 87.6303 114.232C87.8634 114.561 87.732 114.973 87.4713 115.128C87.1322 115.395 86.7422 115.293 86.613 115.036C85.9137 114.049 85.3968 113.021 84.8798 111.992C84.4666 111.036 84.0535 110.08 83.6404 109.123C83.4073 108.794 83.5387 108.383 83.9032 108.3C83.7994 108.228 83.9032 108.3 83.9032 108.3ZM54.8896 133.114C56.7863 133.925 58.7614 134.623 60.8149 135.207C61.2048 135.309 61.2556 135.68 61.2026 135.978C61.0711 136.39 60.7066 136.472 60.4205 136.442C58.367 135.857 56.2097 135.201 54.3915 134.277C54.08 134.062 53.9507 133.805 54.0822 133.393C54.1606 133.28 54.239 133.166 54.3174 133.053C54.5251 133.197 54.7074 133.156 54.8896 133.114ZM108.421 105.507C108.786 105.424 109.097 105.64 109.148 106.01C109.557 108.304 109.68 110.567 109.62 112.872C109.567 113.17 109.332 113.51 108.967 113.593C108.681 113.562 108.37 113.346 108.319 112.976C108.482 110.743 108.281 108.593 107.898 106.485C107.847 106.115 108.004 105.888 108.265 105.733C108.239 105.548 108.343 105.62 108.421 105.507ZM91.491 119.084C92.9171 120.574 94.5255 122.023 96.1868 123.174C96.4983 123.39 96.5492 123.76 96.3139 124.1C96.0786 124.439 95.7141 124.522 95.4026 124.306C93.7158 122.971 92.029 121.635 90.4991 120.073C90.1876 119.857 90.319 119.446 90.5543 119.106L90.6327 118.993C91.0757 118.797 91.3618 118.827 91.491 119.084ZM67.1068 136.548C69.2133 136.834 71.3982 137.006 73.4539 136.922C73.74 136.952 74.0515 137.168 74.1024 137.538C74.0493 137.837 73.8141 138.177 73.3457 138.187C71.1862 138.2 69.0012 138.027 66.8163 137.855C66.5302 137.824 66.2971 137.495 66.2463 137.125C66.2209 136.94 66.3777 136.713 66.56 136.672C66.8207 136.517 67.0029 136.476 67.1068 136.548ZM107.623 118.862C108.013 118.964 108.064 119.334 107.932 119.746C107.014 121.959 105.785 123.956 104.166 125.851C103.93 126.19 103.462 126.201 103.333 125.944C103.021 125.728 103.049 125.245 103.309 125.09C104.85 123.309 106.001 121.425 106.762 119.439C106.841 119.325 106.919 119.212 106.998 119.099C107.337 118.831 107.519 118.79 107.623 118.862ZM79.9601 136.401C82.1727 136.09 84.2814 135.707 86.3647 135.139C86.7292 135.056 87.0407 135.272 87.0916 135.642C87.1424 136.012 86.9071 136.352 86.5426 136.435C84.4593 137.003 82.1683 137.427 79.9557 137.738C79.5912 137.821 79.3581 137.492 79.3073 137.122C79.3603 136.823 79.5172 136.597 79.5956 136.483C79.7779 136.442 79.9601 136.401 79.9601 136.401ZM101.535 126.543C103.354 127.467 105.276 128.463 107.251 129.16C107.641 129.263 107.692 129.633 107.56 130.045C107.429 130.456 107.064 130.539 106.674 130.437C104.595 129.667 102.595 128.784 100.855 127.747C100.544 127.531 100.493 127.161 100.65 126.935C100.728 126.821 100.806 126.708 100.885 126.595C101.146 126.44 101.432 126.471 101.535 126.543ZM92.6168 132.766C94.6493 131.828 96.6564 130.704 98.4558 129.437C98.7949 129.169 99.1849 129.272 99.3141 129.529C99.5472 129.858 99.4157 130.269 99.155 130.424C97.3556 131.691 95.2701 132.928 93.1592 133.979C92.8985 134.134 92.4048 133.96 92.3539 133.589C92.1463 133.446 92.2777 133.034 92.6168 132.766C92.5384 132.879 92.5384 132.879 92.6168 132.766ZM113.411 130.913C115.439 131.312 117.546 131.598 119.731 131.771C120.017 131.801 120.328 132.017 120.301 132.5C120.248 132.799 120.013 133.139 119.544 133.149C117.281 133.09 115.07 132.732 113.042 132.333C112.652 132.231 112.523 131.974 112.655 131.562C112.629 131.377 112.89 131.222 112.968 131.109C113.047 130.996 113.229 130.954 113.411 130.913ZM126.106 131.661C128.24 131.463 130.452 131.152 132.561 130.769C132.925 130.687 133.237 130.902 133.288 131.273C133.339 131.643 133.103 131.983 132.739 132.066C130.448 132.49 128.235 132.801 126.101 132.998C125.737 133.081 125.504 132.752 125.453 132.382C125.506 132.083 125.663 131.857 125.845 131.816C125.923 131.702 126.106 131.661 126.106 131.661ZM139.019 129.209C141.102 128.641 143.16 127.888 145.4 127.093C145.764 127.011 146.154 127.113 146.205 127.484C146.256 127.854 146.125 128.266 145.76 128.348C143.624 129.215 141.462 129.896 139.379 130.464C139.014 130.547 138.703 130.331 138.652 129.961C138.601 129.59 138.758 129.364 139.019 129.209C138.915 129.137 139.019 129.209 139.019 129.209ZM151.523 124.464C153.555 123.525 155.588 122.587 157.595 121.463C157.856 121.309 158.245 121.411 158.479 121.74C158.608 121.997 158.476 122.409 158.137 122.677C156.13 123.8 154.098 124.739 152.065 125.677C151.804 125.832 151.311 125.657 151.26 125.287C151.027 124.958 151.184 124.731 151.523 124.464Z" fill="#013A67"/>
<path id="Vector_3" d="M166.276 116.249C166.276 116.249 165.155 116.98 163.434 118.134C163.173 118.289 163.042 118.701 163.093 119.071C163.222 119.328 163.612 119.431 163.976 119.348C165.801 118.266 166.74 117.575 166.818 117.462C167.157 117.194 167.211 116.896 166.977 116.567C167.005 116.083 166.615 115.981 166.276 116.249Z" fill="#013A67"/>
<path id="Vector_4" d="M171.59 106.356L176.71 108.059C176.71 108.059 193.674 100.202 193.934 100.047C194.22 100.077 204.527 99.1716 204.527 99.1716L194.461 105.941L176.171 113.718L171.59 106.356Z" fill="#013A67"/>
<path id="Vector_5" d="M176.579 124.221L204.527 99.1716L176.275 113.79L176.579 124.221Z" fill="#013A67"/>
<path id="Vector_6" d="M176.71 108.059L176.305 96.8864L204.527 99.1716L176.71 108.059Z" fill="#013A67"/>
</g>
<defs>
<clipPath id="clip0_0_347">
<rect width="127.56" height="170.761" fill="white" transform="translate(213.82 97.7319) rotate(124.703)"/>
</clipPath>
</defs>
</svg>
