<svg width="35" height="35" viewBox="0 0 35 35" fill="none" xmlns="http://www.w3.org/2000/svg">
<g id="twemoji:flag-saudi-arabia" clip-path="url(#clip0_2_514)">
<path id="Vector" d="M31.1111 4.86108H3.88889C2.85749 4.86108 1.86834 5.2708 1.13903 6.00011C0.409721 6.72942 0 7.71858 0 8.74997L0 26.25C0 27.2814 0.409721 28.2705 1.13903 28.9998C1.86834 29.7291 2.85749 30.1389 3.88889 30.1389H31.1111C32.1425 30.1389 33.1317 29.7291 33.861 28.9998C34.5903 28.2705 35 27.2814 35 26.25V8.74997C35 7.71858 34.5903 6.72942 33.861 6.00011C33.1317 5.2708 32.1425 4.86108 31.1111 4.86108Z" fill="#006C35"/>
<g id="Group">
<path id="Vector_2" d="M8.67116 13.6597C9.28561 13.7181 8.9463 12.6204 9.16894 12.4211C9.21075 12.3229 9.28852 12.3219 9.29436 12.4464V13.3778C9.28852 13.6811 9.48783 13.7696 9.64241 13.8328C9.8038 13.8201 9.91075 13.826 9.97394 13.9825L10.0498 15.5944C10.0498 15.5944 10.4231 15.7014 10.4406 14.6874C10.4591 14.0924 10.322 13.5946 10.4027 13.4789C10.4056 13.3651 10.5505 13.3583 10.6516 13.4137C10.812 13.5265 10.8839 13.6665 11.1328 13.6111C11.513 13.5071 11.7405 13.3224 11.7463 13.0307C11.7239 12.7536 11.6928 12.4765 11.5732 12.1994C11.5898 12.1489 11.5003 12.0186 11.5169 11.9681C11.5849 12.075 11.6889 12.0662 11.7123 11.9681C11.6481 11.7551 11.548 11.551 11.3846 11.4625C11.2505 11.3439 11.0541 11.3682 10.9821 11.6151C10.9491 11.899 11.0852 12.2374 11.2913 12.5125C11.3351 12.6204 11.3973 12.7993 11.3701 12.9607C11.2602 13.0229 11.1494 12.9976 11.058 12.9004C11.058 12.9004 10.7556 12.6739 10.7556 12.6233C10.8363 12.11 10.7741 12.0517 10.7294 11.9097C10.6982 11.7133 10.6049 11.6501 10.5291 11.516C10.4532 11.4362 10.3512 11.4362 10.3026 11.516C10.1684 11.7474 10.2306 12.2451 10.3278 12.4678C10.3969 12.6719 10.5038 12.8012 10.4532 12.8012C10.4114 12.9169 10.3259 12.8897 10.2637 12.7565C10.1742 12.4804 10.1567 12.0692 10.1567 11.8835C10.1295 11.654 10.1003 11.1631 9.94964 11.0386C9.85727 10.9132 9.72019 10.9735 9.67255 11.0892C9.66283 11.3167 9.66088 11.5451 9.68713 11.7561C9.79019 12.1246 9.82325 12.4493 9.8738 12.8275C9.88741 13.334 9.58116 13.0472 9.59477 12.7964C9.66575 12.4707 9.64727 11.9574 9.58408 11.8271C9.5345 11.6978 9.47519 11.6647 9.35463 11.6861C9.25936 11.6783 9.01241 11.9486 8.94241 12.3958C8.94241 12.3958 8.88311 12.6262 8.85783 12.8314C8.8238 13.0628 8.67214 13.2261 8.56519 12.7993C8.47283 12.4892 8.41644 11.724 8.26186 11.9029C8.21713 12.5008 8.16366 13.5528 8.67116 13.6597Z" fill="white"/>
<path id="Vector_3" d="M9.59567 14.0962C9.09011 14.1059 8.35025 14.7602 8.32983 15.1229C8.86261 14.8662 9.38664 14.6192 9.92914 14.3548C9.84164 14.2236 9.92428 14.1059 9.59567 14.0962Z" fill="white"/>
<path id="Vector_4" d="M12.3831 16.0571C12.6174 15.2764 12.3451 14.7009 12.4725 14.7038C12.7418 14.9945 13.119 14.7427 13.2017 14.6416C13.2376 14.591 13.3261 14.558 13.3883 14.6241C13.5993 14.7757 13.9707 14.7038 14.0475 14.4374C14.0961 14.1699 14.126 13.8993 14.1369 13.6276C13.9649 13.681 13.8365 13.717 13.8249 13.788L13.7889 14.0194C13.7743 14.0942 13.6256 14.0971 13.6197 14.0019C13.5546 13.7053 13.2843 13.6664 13.121 14.1263C13.0111 14.2157 12.8128 14.2333 12.7914 14.1001C12.8176 13.7919 12.6932 13.7501 12.4443 13.8949C12.3646 13.2834 12.2839 12.6991 12.2042 12.0876C12.3082 12.0846 12.4035 12.1614 12.4978 12.0428C12.3938 11.7191 12.174 11.058 12.0525 11.0103C11.9932 10.9384 11.9426 10.9831 11.8658 11.0016C11.7356 11.0434 11.614 11.1562 11.6519 11.3749C11.8065 12.3131 11.9076 13.0277 12.0613 13.9659C12.0846 14.0757 11.9932 14.2206 11.8746 14.206C11.6733 14.0699 11.6228 13.7938 11.2786 13.8055C11.0288 13.8084 10.7439 14.0787 10.7089 14.3402C10.6671 14.5473 10.6525 14.7728 10.7089 14.9546C10.8839 15.1646 11.0949 15.1442 11.2786 15.0966C11.4293 15.0344 11.5547 14.8827 11.6072 14.9187C11.6432 14.9624 11.616 15.4612 10.8956 15.8442C10.459 16.0396 10.1119 16.0844 9.92528 15.7285C9.80959 15.5059 9.93403 14.6601 9.64917 14.8564C8.80625 17.0294 11.6228 17.3308 11.9378 14.9459C11.9679 14.8477 12.0865 14.7495 12.1069 14.9099C12.0418 17.0702 9.9282 17.2189 9.56945 16.5394C9.48 16.3789 9.45375 16.0231 9.445 15.8092C9.39153 15.3844 9.16889 15.5477 9.13389 15.9687C9.09792 16.203 9.10764 16.2691 9.10764 16.4937C9.21945 18.1999 11.9417 17.4669 12.3831 16.0571ZM11.3331 14.5813C11.3156 14.6144 11.2388 14.6007 11.1824 14.6007C11.1182 14.5978 11.0881 14.5871 11.0492 14.5356C11.0317 14.4773 11.0861 14.4219 11.1104 14.3781C11.1406 14.3266 11.3029 14.2731 11.3603 14.417C11.3709 14.4443 11.374 14.474 11.3692 14.5029C11.3644 14.5318 11.3519 14.5589 11.3331 14.5813Z" fill="white"/>
<path id="Vector_5" d="M13.2241 12.6476C13.3933 12.5854 14.1953 11.6686 14.1953 11.6686C14.1535 11.6326 14.1166 11.6063 14.0748 11.5704C14.0301 11.5315 14.0349 11.4926 14.0748 11.4547C14.2731 11.339 14.2099 11.0852 14.1059 10.9695C14.0386 10.9365 13.9645 10.9197 13.8896 10.9204C13.8147 10.921 13.7409 10.9392 13.6742 10.9734C13.5352 11.1066 13.5021 11.3205 13.612 11.4547C13.719 11.5052 13.8259 11.6131 13.7549 11.6725C13.4273 12.0225 12.529 12.6262 12.633 12.6476C12.6553 12.6768 13.2066 12.6758 13.2241 12.6476ZM13.8181 11.2077C13.8696 11.1951 13.9358 11.2408 13.9669 11.3088C13.998 11.3769 13.9815 11.442 13.9309 11.4547H13.929C13.8784 11.4673 13.8123 11.4216 13.7812 11.3536C13.751 11.2845 13.7676 11.2204 13.8181 11.2077ZM8.61576 16.7786C8.48354 17.0479 8.42812 16.8631 8.41645 16.7125C8.40126 16.4594 8.41398 16.2054 8.45437 15.9551C8.48743 15.7412 8.45437 15.8063 8.38632 15.8929C8.0859 16.3712 8.05965 17.0868 8.2259 17.2997C8.3134 17.4008 8.45826 17.4455 8.56618 17.4125C8.75479 17.3308 8.83743 16.9477 8.7927 16.8087C8.72854 16.7105 8.67895 16.695 8.61576 16.7786ZM18.514 11.7152C18.8601 12.18 19.1887 12.6534 19.5105 13.1356C19.5737 13.5537 19.6194 13.962 19.6466 14.3675C19.7001 15.1491 19.7156 15.995 19.667 16.8184C19.8128 16.8243 20.0491 16.5812 20.1308 16.2263C20.1842 15.7354 20.1113 14.8613 20.1065 14.5716C20.1 14.39 20.0913 14.2085 20.0802 14.0272C20.4633 14.6533 20.8366 15.3086 21.2012 16.0368C21.3344 15.9745 21.3052 15.2298 21.2274 15.1248C20.9358 14.4997 20.5342 13.8813 20.4059 13.6441C20.3583 13.5566 20.1959 13.3077 20.0024 13.0229C19.9858 12.7955 19.9586 12.5691 19.9208 12.3443C19.8605 11.9281 20.0928 12.39 20.0608 12.1479C19.9859 11.7318 19.7545 11.4508 19.4842 11.0697C19.3967 10.9462 19.3996 10.9209 19.2645 11.0998C19.2167 11.207 19.1948 11.3239 19.2003 11.4411C19.1581 11.379 19.113 11.319 19.0652 11.2612C18.9185 11.1346 18.771 11.0089 18.6228 10.884C18.5246 10.814 18.2855 10.6876 18.2427 10.8976C18.2228 11.0448 18.23 11.1944 18.2641 11.339C18.2894 11.443 18.4401 11.6161 18.514 11.7152ZM19.2334 11.6919C19.2519 11.7726 19.2713 11.8533 19.284 11.9359L19.2985 12.0147C19.2578 11.9577 19.2153 11.9019 19.1712 11.8475C19.0117 11.6588 19.144 11.6997 19.2334 11.6919Z" fill="white"/>
<path id="Vector_6" d="M21.31 16.2292C20.9717 16.5821 20.4836 17.0167 19.9528 17.218C19.8954 17.2821 20.0947 17.5573 20.3514 17.5573C20.7821 17.5067 21.1613 17.2646 21.5122 16.6278C21.6065 16.4801 21.7718 16.1621 21.7757 15.9152C21.8078 14.4705 21.7038 13.3456 21.4869 12.3015C21.4724 12.2177 21.4764 12.1317 21.4986 12.0496C21.5258 12.0166 21.6211 12.0496 21.6717 11.968C21.7446 11.8921 21.4763 11.2699 21.3226 11.0308C21.2682 10.9238 21.2497 10.8519 21.1593 11.0434C21.064 11.199 21.0008 11.4702 21.0086 11.723C21.2138 13.1453 21.277 14.3908 21.4111 15.8131C21.4218 15.9502 21.4014 16.1505 21.31 16.2292ZM26.9781 12.6223C26.9635 12.5212 26.9188 12.2859 26.9363 12.2558C26.9635 12.1838 27.1044 12.2635 27.155 12.1809C27.2289 12.106 26.7914 11.5441 26.6388 11.3049C26.5833 11.198 26.5649 11.126 26.4745 11.3176C26.3792 11.4731 26.3461 11.7521 26.384 11.9971C26.6125 13.542 26.7826 14.7028 26.8176 16.0727C26.7972 16.203 26.7933 16.273 26.7321 16.4363C26.5969 16.6094 26.4482 16.8252 26.3072 16.9302C26.1672 17.0342 25.8688 17.1344 25.7706 17.2112C25.4624 17.391 25.4614 17.5962 25.7122 17.603C26.142 17.5524 26.6514 17.5174 27.0024 16.9866C27.0967 16.8388 27.2085 16.4373 27.2133 16.1903C27.2454 14.7456 27.1949 13.6665 26.9781 12.6223ZM23.7201 13.8249C23.724 13.6266 23.7425 13.3641 23.7532 13.1998C23.7581 13.1385 23.7726 13.0695 23.831 13.054C23.8903 13.0384 23.9953 13.1142 23.9963 13.0501C23.9846 12.9246 23.9593 12.738 23.8883 12.6495C23.7911 12.5056 23.5335 12.5406 23.4878 12.7662C23.4888 12.8498 23.5267 12.8945 23.5199 12.9703C23.5082 13.0131 23.4635 13.0423 23.3575 12.9917C23.375 12.9762 23.2885 12.8566 23.2885 12.8566C23.2058 12.806 23.095 12.8595 23.024 12.9052C22.9983 12.9542 22.983 13.008 22.979 13.0632C22.975 13.1184 22.9824 13.1738 23.0007 13.226C23.1174 13.4467 23.5247 13.821 23.7201 13.8249Z" fill="white"/>
<path id="Vector_7" d="M23.5831 12.1343C23.868 12.4833 24.1586 12.8372 24.4513 13.1969C24.5145 14 24.531 14.6572 24.5932 15.4603C24.5845 15.8006 24.4795 16.0971 24.3793 16.1399C24.3793 16.1399 24.2286 16.2274 24.1275 16.1311C24.0536 16.101 23.7591 15.6401 23.7591 15.6401C23.6084 15.5021 23.5092 15.541 23.4023 15.6401C23.1067 15.925 22.9735 16.4597 22.7732 16.8272C22.7207 16.9099 22.5749 16.9799 22.4125 16.8214C22.0013 16.2585 22.2424 15.4583 22.1918 15.6644C21.8253 16.0776 21.9867 16.7611 22.0693 16.9089C22.1899 17.15 22.2881 17.3056 22.5234 17.4251C22.7373 17.5826 22.9045 17.4835 22.9959 17.3736C23.2117 17.149 23.2146 16.5803 23.3157 16.4656C23.3857 16.2585 23.5656 16.2935 23.6521 16.3858C23.7314 16.4977 23.8364 16.5887 23.9584 16.6513C24.1596 16.8292 24.3998 16.8613 24.636 16.6989C24.7974 16.6085 24.9034 16.4908 24.9977 16.2585C25.1027 15.9785 25.0453 14.6913 25.0239 13.9193C25.1746 14.1138 25.3214 14.3169 25.4702 14.5201C25.5353 15.1647 25.5723 15.8064 25.5509 16.4617C25.5353 16.5929 26.0078 16.0728 26.0039 15.8258C26.002 15.6265 26.0039 15.4457 26.0039 15.2756C26.2314 15.6178 26.4531 15.9707 26.6611 16.344C26.7914 16.276 26.7486 15.5419 26.666 15.4408C26.4259 15.0383 26.106 14.6193 25.8853 14.3199C25.8707 14.2819 25.863 14.2392 25.8455 14.2032C25.757 13.9981 25.8124 13.8328 25.7706 13.615C25.7298 13.3963 25.7405 13.0696 25.6773 12.81C25.6598 12.7089 25.6073 12.3842 25.6228 12.354C25.6481 12.2811 25.7453 12.356 25.793 12.2724C25.8639 12.1946 25.547 11.3731 25.3856 11.1378C25.3273 11.0328 25.2223 11.0688 25.092 11.2399C24.9724 11.3526 25.0171 11.6093 25.0628 11.8533C25.1766 12.4444 25.2718 13.0113 25.3535 13.5722C25.1787 13.3398 25.0021 13.1087 24.8236 12.879L24.8159 12.8363C24.8159 12.8256 24.7896 12.3268 24.7663 12.2082C24.7624 12.1606 24.7507 12.146 24.8013 12.1518C24.8548 12.1965 24.8616 12.1994 24.8956 12.215C24.95 12.2247 24.9977 12.1324 24.9656 12.0478L24.463 11.1222C24.4231 11.0824 24.3706 11.0396 24.3074 11.1329C24.2682 11.1672 24.2367 11.2095 24.2153 11.257C24.1938 11.3044 24.1828 11.356 24.183 11.4081C24.1985 11.6268 24.2364 11.8504 24.251 12.0701L24.2724 12.1888C24.25 12.1625 24.2228 12.1294 24.2111 12.1178C23.7843 11.6686 24.4075 12.0449 24.1295 11.6978C23.8942 11.4392 23.8261 11.3585 23.6239 11.2029C23.5228 11.1378 23.4616 11.0133 23.4285 11.2253C23.4119 11.4111 23.407 11.5978 23.4139 11.7843C23.4139 11.8738 23.5043 12.0371 23.5831 12.1343ZM14.9293 13.1833C15.1743 13.2844 15.3309 12.8178 15.432 12.3064C15.5 12.1625 15.5525 12.1469 15.5875 12.2208C15.5788 12.9014 15.6361 13.0521 15.8111 13.2592C16.201 13.5606 16.5238 13.2971 16.55 13.2718L16.8534 12.9685C16.9205 12.8975 17.0109 12.8926 17.1061 12.9558C17.1995 13.0394 17.1868 13.1853 17.3852 13.2864C17.5524 13.3535 17.9102 13.3019 17.9928 13.1581C18.1046 12.9675 18.1318 12.9014 18.1824 12.8294C18.2621 12.7235 18.3982 12.7711 18.3982 12.8042C18.3856 12.8635 18.3059 12.9228 18.3603 13.0288C18.4556 13.0997 18.477 13.054 18.5334 13.0385C18.7317 12.9432 18.8795 12.5135 18.8795 12.5135C18.8882 12.3531 18.7988 12.3667 18.7405 12.3997C18.6646 12.4454 18.6598 12.461 18.5839 12.5076C18.4867 12.5222 18.2991 12.5864 18.2067 12.4425C18.1114 12.2694 18.1095 12.0283 18.0375 11.8543C18.0375 11.8417 17.9111 11.5792 18.0288 11.5626C18.0881 11.5733 18.2135 11.6064 18.2339 11.5014C18.2952 11.3983 18.1007 11.1047 17.9685 10.956C17.8528 10.8296 17.6924 10.814 17.5378 10.9433C17.4289 11.0435 17.4445 11.1543 17.4231 11.2603C17.4054 11.3351 17.4055 11.4129 17.4232 11.4877C17.4409 11.5625 17.4758 11.6321 17.5252 11.691C17.6331 11.9039 17.8305 12.179 17.7653 12.564C17.7653 12.564 17.6506 12.7468 17.4493 12.7235C17.3657 12.705 17.2296 12.669 17.1577 12.1343C17.1032 11.7289 17.1713 11.1621 16.9992 10.8967C16.937 10.7363 16.8923 10.5817 16.7406 10.8558C16.6998 10.9638 16.5248 11.1271 16.6521 11.4644C16.7561 11.6774 16.798 12.0244 16.7513 12.4114C16.6793 12.5213 16.6638 12.5582 16.5695 12.6681C16.4373 12.81 16.2943 12.774 16.1845 12.7206C16.0814 12.6515 16.0017 12.6156 15.955 12.3958C15.9638 12.0458 15.9832 11.4722 15.9191 11.3507C15.8248 11.1621 15.6692 11.2301 15.6021 11.2875C15.2823 11.5801 15.1248 12.0731 15.0285 12.4649C14.94 12.7507 14.8457 12.669 14.7796 12.5533C14.6182 12.4017 14.6075 11.2185 14.4121 11.4139C14.0981 12.3025 14.5891 13.2786 14.9293 13.1833Z" fill="white"/>
<path id="Vector_8" d="M19.5776 15.0927L19.4842 15.0393L17.6555 15.0305C17.5612 14.9945 17.5894 14.9634 17.6555 14.9381C18.092 14.8788 18.8688 14.7524 18.9204 14.0068C18.9116 13.6188 18.7531 13.3641 18.2767 13.2941C17.9277 13.3213 17.6779 13.6606 17.7177 14.033C17.7012 14.1341 17.7508 14.3305 17.6487 14.3529C16.9769 14.4141 16.2448 14.8341 16.2205 15.1355C16.1797 15.1637 16.0883 15.082 16.0999 14.9537C16.0676 14.4047 15.9096 13.8705 15.6381 13.3923C15.4262 13.1804 15.4923 13.2504 15.3504 13.3505C15.259 13.4555 15.2424 13.5274 15.2473 13.7365C15.2473 13.7443 15.4184 14.2216 15.5633 14.5561C15.6595 14.8993 15.7499 15.2911 15.6848 15.6615C15.4592 16.1515 15.0052 16.5909 14.5677 16.8291C14.3422 16.902 14.1487 16.8758 14.101 16.8252C13.962 16.7319 13.9688 16.5598 13.9795 16.5569C14.348 16.2993 14.7699 16.0922 15.1005 15.399C15.1977 15.1345 15.2269 14.9741 15.1306 14.5648C15.1039 14.4206 15.0376 14.2866 14.9391 14.1779C14.9984 14.139 15.1685 14.2683 15.1948 14.1915C15.1455 13.9674 15.034 13.7619 14.873 13.5984C14.7417 13.4788 14.5988 13.4652 14.4783 13.5751C14.3422 13.6509 14.313 13.9212 14.3781 14.1584C14.4501 14.3373 14.6455 14.3674 14.7855 14.7262C14.7855 14.734 14.836 14.9945 14.7641 15.0966C14.7067 15.2755 13.963 15.8598 13.9222 15.8861C13.9017 15.9113 13.9105 15.8734 13.9076 15.7762C13.9027 15.6576 13.9552 15.3776 13.9406 15.3756C13.6985 15.5322 13.6179 16.0115 13.5741 16.1534C12.9616 16.5763 12.2684 16.8913 11.8679 17.3211C11.6588 17.6468 13.3048 16.9468 13.4963 16.8622C13.5391 16.8933 13.5342 17.0401 13.649 17.1713C13.8201 17.4027 14.1817 17.5456 14.5366 17.4572C15.1297 17.2423 15.4729 16.8379 15.8209 16.3897C15.8705 16.3168 15.9483 16.2613 16.0202 16.3168C16.2594 16.8524 16.9506 17.2316 17.8422 17.2715C18.0492 17.0197 17.9491 16.8981 17.8655 16.8456C17.8655 16.8379 17.4251 16.6706 17.358 16.5034C17.3172 16.3518 17.4163 16.2186 17.6147 16.1174C18.1873 16.0484 18.7502 15.9716 19.2956 15.7966C19.3015 15.6138 19.4074 15.3397 19.4804 15.2211C19.5504 15.1005 19.5883 15.1365 19.5776 15.0927ZM18.0735 13.9533C18.1008 13.9076 18.1912 13.9095 18.2758 13.9591C18.3604 14.0077 18.408 14.0855 18.3798 14.1312C18.3526 14.1779 18.2612 14.1749 18.1766 14.1254C18.092 14.0768 18.0463 13.9999 18.0735 13.9533ZM17.3376 15.8005C17.1412 15.8676 16.9526 15.9201 16.9526 16.204C17.0255 16.5987 16.8524 16.4636 16.7504 16.4091C16.6298 16.3226 16.2905 16.1136 16.2419 15.6624C16.2341 15.5545 16.3187 15.4641 16.4538 15.4641C16.657 15.5195 16.9574 15.5234 17.218 15.5506C17.4309 15.5643 17.5369 15.7315 17.3376 15.8005ZM10.5641 11.4206C10.7741 11.5218 11.1708 11.479 11.1533 11.1387C11.1533 11.1086 11.1455 11.0074 11.1426 10.9802C11.0998 10.8801 10.9831 10.9044 10.9559 11.0084C10.9472 11.0424 10.9705 11.0969 10.9404 11.1144C10.9229 11.1319 10.8558 11.1212 10.8587 11.0279C10.8587 10.9977 10.8363 10.9656 10.8237 10.9472C10.8101 10.9384 10.8023 10.9355 10.778 10.9355C10.7488 10.9365 10.7488 10.9443 10.7333 10.9695C10.7265 10.9938 10.7167 11.0191 10.7167 11.0473C10.7129 11.0804 10.7002 11.092 10.6759 11.0979C10.6487 11.0979 10.6545 11.1008 10.6331 11.0862C10.6195 11.0716 10.603 11.0658 10.603 11.0415C10.6029 11.0131 10.5983 10.9848 10.5894 10.9579C10.5777 10.9423 10.5592 10.9355 10.5379 10.9297C10.4231 10.9297 10.4154 11.0609 10.4222 11.1115C10.4115 11.1202 10.4076 11.3555 10.5641 11.4206Z" fill="white"/>
<path id="Vector_9" d="M17.0256 13.6373C17.0256 13.6072 17.0032 13.5761 16.9906 13.5566C16.977 13.5479 16.9692 13.545 16.9449 13.545C16.9157 13.5459 16.9167 13.5537 16.9001 13.579C16.8933 13.6043 16.8836 13.6286 16.8836 13.6568C16.8807 13.6908 16.8671 13.7025 16.8428 13.7073C16.8156 13.7073 16.8214 13.7102 16.799 13.6966C16.7854 13.682 16.7689 13.6762 16.7689 13.6519C16.7689 13.6235 16.7643 13.5952 16.7553 13.5683C16.7436 13.5527 16.7251 13.5459 16.7038 13.5411C16.589 13.5411 16.5813 13.6723 16.5871 13.7219C16.5783 13.7316 16.5735 13.9659 16.73 14.032C16.941 14.1322 17.4417 14.0739 17.3192 13.7501C17.3171 13.6969 17.3136 13.6437 17.3085 13.5907C17.2657 13.4905 17.1481 13.5158 17.1218 13.6189C17.114 13.6529 17.1374 13.7073 17.1063 13.7248C17.0907 13.7423 17.0226 13.7316 17.0256 13.6373ZM20.3282 12.95C20.5382 13.0511 20.9339 13.0083 20.9164 12.669C20.9144 12.6158 20.9108 12.5626 20.9057 12.5095C20.8629 12.4094 20.7463 12.4347 20.72 12.5377C20.7113 12.5718 20.7346 12.6262 20.7035 12.6437C20.686 12.6612 20.6189 12.6515 20.6218 12.5572C20.6218 12.527 20.5995 12.495 20.5868 12.4765C20.5732 12.4677 20.5654 12.4648 20.5401 12.4648C20.511 12.4668 20.512 12.4736 20.4954 12.4989C20.4886 12.5241 20.4789 12.5484 20.4789 12.5766C20.475 12.6107 20.4624 12.6223 20.4381 12.6272C20.4108 12.6272 20.4167 12.6301 20.3943 12.6165C20.3807 12.6019 20.3651 12.5961 20.3651 12.5718C20.3651 12.543 20.3605 12.5145 20.3515 12.4872C20.3389 12.4716 20.3214 12.4648 20.299 12.46C20.1843 12.46 20.1765 12.5912 20.1833 12.6408C20.1765 12.6505 20.1717 12.8848 20.3282 12.95ZM20.4701 11.6355C20.545 11.8455 20.4128 12.0458 20.4915 12.075C20.5625 12.108 20.6636 11.8582 20.7006 11.6277C20.7443 11.4411 20.6111 11.059 20.4225 10.9802C20.3078 10.953 20.1445 11.0211 20.197 11.1747C20.1707 11.2486 20.4283 11.4994 20.4701 11.6355ZM22.4097 16.5589C22.5565 16.5598 22.7257 16.2234 22.7976 15.89C22.8375 15.4311 22.7704 15.152 22.7588 14.8818C22.7461 14.6125 22.4545 12.5562 22.3942 12.352C22.3232 11.9661 22.679 12.3005 22.6401 12.0759C22.5167 11.793 22.2104 11.3818 22.1132 11.1358C22.0549 11.0308 22.0801 10.9375 21.9499 11.1086C21.8303 11.5023 21.7885 11.8232 21.8342 12.0682C22.1433 13.682 22.4603 15.0237 22.4097 16.5589ZM26.0614 12.3394C26.0954 12.4444 26.0099 12.7837 26.0808 12.8148C26.146 12.8498 26.2374 12.5805 26.2714 12.3307C26.2899 12.1936 26.1897 11.7152 26.0176 11.6297C25.9126 11.6005 25.7639 11.6734 25.8125 11.8407C25.7882 11.9214 26.0235 12.1916 26.0614 12.3394ZM13.3068 15.8939C13.37 15.9201 13.4565 15.7218 13.4896 15.538C13.5081 15.4369 13.4108 15.0859 13.2465 15.0227C13.1454 15.0014 13.0074 15.0286 13.0501 15.1783C13.0453 15.259 13.2738 15.3562 13.2874 15.5439C13.3204 15.6216 13.2388 15.8715 13.3068 15.8939ZM8.87737 11.407C8.90945 11.4877 8.84529 11.7454 8.91237 11.7697C8.97362 11.7969 9.06015 11.5908 9.09223 11.4012C9.1107 11.2962 9.09612 10.9404 8.85306 10.8675C8.75293 10.8451 8.6139 10.9005 8.65959 11.0279C8.63626 11.0882 8.8414 11.2943 8.87737 11.407ZM13.6432 12.5475C13.4575 12.6486 13.3846 12.948 13.5013 13.122C13.6092 13.2766 13.7803 13.2193 13.8036 13.2193C13.9864 13.2416 14.0943 12.877 14.0943 12.877C14.0943 12.877 14.1001 12.775 13.8833 12.9684C13.792 12.9859 13.7803 12.9519 13.7579 12.8994C13.7358 12.8043 13.7457 12.7045 13.7861 12.6155C13.8172 12.5251 13.7472 12.4852 13.6432 12.5475ZM15.0451 11.4265C15.0751 11.408 15.1008 11.3833 15.1206 11.3542C15.1404 11.325 15.1538 11.292 15.1599 11.2573C15.1881 11.1154 15.0092 11.3244 14.9868 11.1659C14.947 11.0191 15.0617 10.9589 15.1706 10.8169C15.1745 10.7187 15.1725 10.6497 15.0393 10.7294C14.946 10.7926 14.7593 10.9851 14.7535 11.2068C14.7476 11.3322 14.7243 11.3312 14.807 11.4109C14.8663 11.4975 14.9256 11.4887 15.0451 11.4265ZM16.3081 11.5023C16.4286 11.1757 16.4286 11.0376 16.4374 10.8986C16.4004 10.6876 16.2575 10.6944 16.1632 10.9287C16.1224 11.0172 16.0747 11.4829 16.0825 11.4829C16.0504 11.6219 16.2274 11.6812 16.3081 11.5023ZM24.2511 13.8191C24.2511 13.8191 23.276 14.5123 23.2526 14.5366C23.1554 14.6222 23.204 14.9255 23.2526 14.8905C23.3217 14.9177 24.3026 14.2518 24.2832 14.174C24.3289 14.1759 24.3513 13.7841 24.2511 13.8191ZM24.1315 15.6994C24.1967 15.7344 24.3688 15.5215 24.362 15.2561C24.3814 15.119 24.3124 14.6164 24.1413 14.5308C24.0363 14.5016 23.8963 14.5911 23.9449 14.7573C23.9206 14.837 24.0654 15.1161 24.1033 15.2639C24.1374 15.3698 24.0606 15.6683 24.1315 15.6994ZM18.6093 17.1539C18.6093 17.1626 18.692 17.2336 18.7892 17.1772C18.9933 17.0984 19.1217 17.0226 19.4075 16.9594C19.4824 16.9584 19.4775 16.7572 19.3589 16.7504C19.2043 16.7582 19.0604 16.7659 18.9058 16.8884C18.8106 16.9098 18.795 16.8525 18.7736 16.8C18.7503 16.6707 18.8271 16.5812 18.8106 16.485C18.8164 16.4908 18.7221 16.4043 18.6258 16.4529C18.621 16.4529 18.411 16.5948 18.3439 16.694C18.3021 16.7261 18.307 16.7533 18.3196 16.8068C18.3517 16.8807 18.409 16.8583 18.4732 16.8233C18.5588 16.8116 18.5996 16.868 18.5928 16.9701C18.552 17.0994 18.6093 17.147 18.6093 17.1539ZM24.9783 17.3152C24.9463 17.3707 24.9249 17.4543 25.024 17.4805C25.2068 17.532 25.6278 17.2579 25.6278 17.253C25.6958 17.2015 25.6735 17.1052 25.6676 17.1052C25.6278 17.0595 25.5383 17.0858 25.4781 17.079C25.4499 17.079 25.3546 17.0644 25.4003 16.9808C25.4324 16.9357 25.458 16.8863 25.4761 16.834C25.5043 16.7708 25.48 16.729 25.377 16.695C25.2729 16.6755 25.2311 16.6852 25.1154 16.695C25.0532 16.7086 25.0318 16.7358 25.0201 16.8116C25.025 16.9264 25.094 16.9205 25.166 16.9662C25.2078 17.0197 25.235 17.0683 25.1631 17.1548C25.095 17.218 25.0474 17.253 24.9783 17.3152ZM24.7917 22.3611H23.3333V21.875C23.3333 21.746 23.2821 21.6224 23.191 21.5312C23.0998 21.4401 22.9762 21.3889 22.8472 21.3889C22.7183 21.3889 22.5947 21.4401 22.5035 21.5312C22.4123 21.6224 22.3611 21.746 22.3611 21.875V22.3611H10.6945C10.6945 22.3611 10.6945 23.3333 13.6111 23.3333H22.3611V23.8194C22.3611 23.9483 22.4123 24.072 22.5035 24.1631C22.5947 24.2543 22.7183 24.3055 22.8472 24.3055C22.9762 24.3055 23.0998 24.2543 23.191 24.1631C23.2821 24.072 23.3333 23.9483 23.3333 23.8194V23.3333H24.3056V23.8194C24.3056 23.9483 24.3568 24.072 24.4479 24.1631C24.5391 24.2543 24.6628 24.3055 24.7917 24.3055C24.9206 24.3055 25.0442 24.2543 25.1354 24.1631C25.2266 24.072 25.2778 23.9483 25.2778 23.8194V22.8472C25.2778 22.7183 25.2266 22.5946 25.1354 22.5035C25.0442 22.4123 24.9206 22.3611 24.7917 22.3611Z" fill="white"/>
</g>
</g>
<defs>
<clipPath id="clip0_2_514">
<rect width="35" height="35" fill="white"/>
</clipPath>
</defs>
</svg>
